# xmcd
#
# Track frame offsets: 
#        150
#        12309
#        26011
#        39631
#        51999
#        65315
#        68621
#        82831
#        96401
#        109421
#        123245
#        136538
#        150707
#        163490
#        178137
#        191131
#        204382
#        223038
#        236857
#        251304
#        265687
#        277474
#        290244
#        303310
#        316244
#
# Disc length: 4396 seconds
#
# Revision: 3
# Processed by: cddbd v1.5.2PL0 Copyright (c) Steve Scherf et al.
# Submitted via: ExactAudioCopy v0.99pb5
#
DISCID=79112a19
DTITLE=Various Artist - Robert Johnson and The Old School Blues
DYEAR=2003
DGENRE=Blues
TTITLE0=Bukka White - Parchman Farm Blues
TTITLE1=Hambone Willy Newbern - Roll And Tumble Blues
TTITLE2=Blind Wille Johnson - God Moves On The Water
TTITLE3=Bessie Smith - Graveyard Dream Blues
TTITLE4=Blind Wille McTell - Mama, 'Tain't Long Fo'Day
TTITLE5=Thomas J Marshall - Arwhoolie (Cornfield Holler)
TTITLE6=Charlie Patton - Screamin' And Hollerin' The Blues
TTITLE7=Willie Brown - Future Blues
TTITLE8=Son House - Preaching The Blues Pt II
TTITLE9=Tommy Johnson - Bye Bye Blues
TTITLE10=Memphis Minnie - Black Cat Blues (Take 1)
TTITLE11=Roosevelt Sykes - 32-20 Blues
TTITLE12=Skip James - Hard Time Killin' Floor Blues
TTITLE13=De Ford Bailey - Up Country Blues
TTITLE14=Kokomo Arnold - Old Original Kokomo Blues
TTITLE15=Blind Lemon Jefferson - Easy Rider Blues
TTITLE16=Leadbelly - C C Rider
TTITLE17=Ma Rainey - Toad Frog Blues
TTITLE18=Mississippi Sheiks - The Jazz Fiddler
TTITLE19=Lonnie Jonhson - She's Making Whoopee In Hell Tonight
TTITLE20=Golden Gate Quartet - Noah
TTITLE21=Rev Blind Gary Davis - I'm Throwin' Up My Hands (Ain't Gonna 
TTITLE21=Work Here No More)
TTITLE22=Sister Rosetta Tharpe - I Looked Down The Lane (And I Wondere
TTITLE22=d)
TTITLE23=Furry Lewis - Falling Down Blues
TTITLE24=Big Bill Broonzy - Mistreatin' Mama
EXTD=www.unionsquaremusic.co.uk
EXTT0=
EXTT1=
EXTT2=
EXTT3=
EXTT4=
EXTT5=
EXTT6=
EXTT7=
EXTT8=
EXTT9=
EXTT10=
EXTT11=
EXTT12=
EXTT13=
EXTT14=
EXTT15=
EXTT16=
EXTT17=
EXTT18=
EXTT19=
EXTT20=
EXTT21=
EXTT22=
EXTT23=
EXTT24=
PLAYORDER=
